<?xml version="1.0" standalone="no"?>
<!DOCTYPE svg PUBLIC "-//W3C//DTD SVG 20010904//EN"
 "http://www.w3.org/TR/2001/REC-SVG-20010904/DTD/svg10.dtd">
<svg version="1.0" xmlns="http://www.w3.org/2000/svg"
 width="1280.000000pt" height="1196.000000pt" viewBox="0 0 1280.000000 1196.000000"
 preserveAspectRatio="xMidYMid meet">
<metadata>
Created by potrace 1.15, written by Peter Selinger 2001-2017
</metadata>
<g transform="translate(0.000000,1196.000000) scale(0.100000,-0.100000)"
fill="#000000" stroke="none">
<path d="M1490 11954 c-14 -3 -57 -21 -96 -39 -261 -125 -491 -609 -618 -1300
-69 -374 -91 -728 -65 -1030 10 -114 9 -129 -7 -153 -9 -15 -90 -126 -180
-248 -209 -284 -311 -440 -384 -589 -104 -213 -147 -386 -137 -550 5 -74 31
-222 41 -233 7 -6 145 -41 189 -47 35 -5 47 -11 43 -21 -15 -39 -58 -189 -75
-264 -98 -416 -110 -988 -31 -1504 80 -519 213 -934 454 -1416 278 -554 641
-1059 1101 -1529 903 -923 2034 -1539 3295 -1795 91 -19 189 -37 218 -41 29
-4 51 -9 49 -12 -4 -4 -50 1 -197 22 -27 4 -30 3 -15 -4 19 -9 19 -10 -3 -10
-12 -1 -57 -10 -100 -22 -316 -84 -401 -174 -250 -267 55 -34 185 -80 288
-102 30 -6 71 -16 90 -20 33 -8 82 -16 230 -39 124 -19 395 -46 630 -63 228
-16 1099 -16 1320 0 655 48 1021 111 1212 208 98 50 125 108 74 159 -28 28
-120 74 -186 94 -25 7 -56 17 -70 22 -47 16 -231 52 -355 70 -44 6 -83 15 -86
20 -3 5 -47 0 -98 -11 -52 -12 -98 -19 -103 -18 -5 2 48 16 119 32 928 210
1855 652 2618 1250 292 229 715 634 929 891 450 540 769 1096 965 1682 74 223
123 437 190 833 142 834 232 1518 287 2190 20 230 24 814 8 865 l-10 30 -137
13 c-76 8 -143 12 -150 9 -7 -2 -26 -46 -42 -96 -16 -50 -32 -91 -37 -91 -4 0
-8 18 -8 39 0 22 -7 93 -15 158 -121 943 -421 1652 -830 1964 -45 35 -227 147
-316 195 -3 2 -17 -60 -29 -137 l-23 -140 -50 58 c-438 505 -1102 803 -2017
907 -144 16 -379 32 -602 41 l-138 5 -6 -28 c-23 -101 -23 -102 -57 -103 l-32
-1 28 -10 c30 -11 32 -23 13 -103 l-11 -50 135 -66 c74 -37 171 -91 215 -119
82 -54 238 -171 233 -175 -6 -5 -367 -77 -733 -145 -209 -39 -380 -72 -381
-73 -6 -5 659 -291 915 -394 403 -162 539 -221 756 -328 398 -197 648 -367
856 -582 150 -156 230 -283 282 -448 14 -44 29 -88 33 -98 4 -12 -18 -2 -67
31 -65 44 -409 208 -409 195 0 -3 18 -103 39 -222 95 -517 136 -842 161 -1258
13 -227 13 -710 0 -697 -5 5 -125 194 -265 418 l-255 409 0 -54 c0 -30 7 -198
15 -374 39 -849 -1 -1458 -131 -1968 -32 -127 -71 -244 -60 -177 3 14 8 128
12 255 l7 230 -148 -140 c-186 -176 -196 -188 -334 -384 -362 -518 -632 -813
-933 -1019 -327 -223 -701 -335 -1065 -318 -594 29 -1200 170 -1615 376 -102
51 -340 192 -334 198 3 2 103 8 223 13 120 5 259 13 308 19 291 35 514 115
733 265 211 143 301 198 457 275 253 125 405 170 574 170 l89 0 40 48 c97 117
135 213 134 342 -2 193 -108 387 -300 544 -60 49 -78 58 -153 75 -499 116
-916 82 -1331 -110 -148 -69 -210 -85 -382 -100 -348 -29 -789 63 -1005 210
-74 51 -107 88 -177 196 -135 208 -219 416 -219 540 l0 70 125 3 c248 6 451
-37 995 -208 127 -40 241 -75 254 -78 21 -4 16 10 -59 154 -173 331 -236 446
-373 673 l-141 234 86 82 c170 162 305 253 696 467 309 169 431 244 441 269 4
11 29 37 56 57 110 83 141 179 92 285 -52 115 -200 188 -377 188 -90 0 -158
-14 -222 -46 l-47 -24 -63 26 c-326 131 -672 397 -885 681 l-62 82 35 83 c55
127 156 317 228 425 139 209 235 306 539 546 48 38 85 71 82 74 -9 9 -432 51
-515 51 -384 0 -912 -223 -1407 -596 l-72 -54 -98 30 c-179 55 -258 66 -483
65 -290 0 -507 -36 -692 -113 l-69 -29 -30 31 c-147 154 -306 523 -494 1146
-31 102 -57 186 -58 188 -6 6 -203 11 -227 7z m6153 -10741 c-7 -2 -21 -2 -30
0 -10 3 -4 5 12 5 17 0 24 -2 18 -5z m-66 -9 c-3 -3 -12 -4 -19 -1 -8 3 -5 6
6 6 11 1 17 -2 13 -5z m-2229 -31 c-10 -2 -26 -2 -35 0 -10 3 -2 5 17 5 19 0
27 -2 18 -5z m65 -10 c-7 -2 -19 -2 -25 0 -7 3 -2 5 12 5 14 0 19 -2 13 -5z"/>
</g>
</svg>
