<?xml version="1.0" encoding="utf-8"?>

<!DOCTYPE svg PUBLIC "-//W3C//DTD SVG 1.1//EN" "http://www.w3.org/Graphics/SVG/1.1/DTD/svg11.dtd">
<!-- Uploaded to: SVG Repo, www.svgrepo.com, Generator: SVG Repo Mixer Tools -->
<svg height="800px" width="800px" version="1.1" id="_x32_" xmlns="http://www.w3.org/2000/svg" xmlns:xlink="http://www.w3.org/1999/xlink" 
	 viewBox="0 0 512 512"  xml:space="preserve">
<style type="text/css">
	.st0{fill:#000000;}
</style>
<g>
	<path class="st0" d="M510.826,84.548l-5.471-14.249c-3.392-8.81-13.121-13.368-22.068-10.354L376.266,96.046
		c-3.802,1.282-7.04,3.818-9.203,7.202l-13.6,21.234c-4.582,7.164-13.622,10.03-21.498,6.815L226.467,88.133
		c-4.535-1.854-8.09-5.517-9.814-10.106c-1.723-4.582-1.452-9.682,0.734-14.064l0.378-0.75c3.849-7.703,1.576-17.038-5.378-22.106
		L161.466,3.985c-6.745-4.93-16.01-4.436-22.192,1.166L27.346,106.547c-5.649,5.108-7.364,13.26-4.273,20.206l7.618,17.154
		c3.4,7.634,0.943,16.614-5.849,21.482L7.38,177.861c-7.921,5.656-9.752,16.645-4.095,24.565l19.681,27.563
		c5.107,7.139,14.697,9.434,22.478,5.37l22.146-11.553v13.97l-11.266,18.035c-2.712,4.335-3.408,9.628-1.901,14.504l46.795,152.094
		c0.356,1.144,0.827,2.249,1.407,3.299l42.042,76.569c3.262,5.934,9.636,9.473,16.398,9.102c6.754-0.37,12.704-4.574,15.308-10.826
		l68.084-163.908c1.127-2.713,2.912-5.107,5.192-6.947l118.859-95.94c4.142-3.346,6.552-8.392,6.552-13.708v-52.313
		c0-9.442,7.457-17.216,16.9-17.595l6.406-0.254c8.863-0.34,16.614,5.95,18.066,14.705l2.952,17.71
		c0.472,2.782,1.592,5.417,3.284,7.673l8.593,11.467c4.474,5.95,12.225,8.454,19.341,6.229l3.848-1.198
		c5.688-1.777,10.1-6.32,11.699-12.062l17.981-64.228c0.781-2.758,2.226-5.301,4.204-7.379l18.823-19.821
		C511.846,98.054,513.261,90.876,510.826,84.548z"/>
</g>
</svg>