<?xml version="1.0" encoding="iso-8859-1"?>
<!-- Uploaded to: SVG Repo, www.svgrepo.com, Generator: SVG Repo Mixer Tools -->
<!DOCTYPE svg PUBLIC "-//W3C//DTD SVG 1.1//EN" "http://www.w3.org/Graphics/SVG/1.1/DTD/svg11.dtd">
<svg fill="#000000" height="800px" width="800px" version="1.1" id="Capa_1" xmlns="http://www.w3.org/2000/svg" xmlns:xlink="http://www.w3.org/1999/xlink" 
	 viewBox="0 0 460.007 460.007" xml:space="preserve">
<path id="XMLID_928_" d="M416.228,231.129h-41.347c15.854-46.745,15.224-95.125-3.827-135.226
	c6.54-19.436,2.451-40.816-12.129-55.395c-14.374-14.374-35.678-18.701-55.375-12.1c-20.917-9.907-44.668-15.083-69.66-15.084
	c-57.15-0.002-116.164,26.234-161.91,71.98c-67.47,67.47-89.855,161.628-57.135,231.104c-6.935,19.42-3.373,41.375,11.716,56.465
	c14.86,14.86,36.83,18.753,56.506,11.717c20.794,9.751,44.365,14.845,69.154,14.845c5.655,0,11.328-0.267,17.005-0.774
	c30.896,29.721,72.851,48.024,119.006,48.024c95.006,0.001,171.777-77.257,171.776-171.775
	C460.007,250.712,440.427,231.129,416.228,231.129z M82.993,350.386c-10.866,9.539-26.251,10.242-35.219,1.273
	c-8.967-8.967-8.268-24.352,1.273-35.219c-36.664-57.47-19.573-146.205,44.145-209.924c41.475-41.475,93.544-63.194,140.696-63.193
	c25.312,0.001,49.211,6.261,69.285,19.084c10.821-8.982,25.758-9.467,34.539-0.686c8.781,8.781,8.297,23.717-0.686,34.539
	c23.632,36.994,24.968,86.959,5.922,134.869H160.235c-24.196-0.002-43.781,19.582-43.779,43.782
	c0,34.811,10.419,67.229,28.288,94.32C122.239,368.112,101.064,361.914,82.993,350.386z M146.456,274.908
	c-0.001-7.605,6.171-13.78,13.779-13.779h88.41l-83.705,83.706C153.182,324.187,146.456,300.319,146.456,274.908z M182.714,369.486
	l90.518-90.519V415.89C237.421,412.106,205.547,394.934,182.714,369.486z M303.232,415.89V278.969l90.519,90.52
	C370.202,395.73,338.045,412.212,303.232,415.89z M411.524,344.837l-83.707-83.708h88.41c0,0,0,0,0,0
	c7.61,0,13.779,6.169,13.779,13.779C430.007,300.32,423.281,324.189,411.524,344.837z"/>
</svg>