<?xml version="1.0" encoding="iso-8859-1"?>
<!-- Uploaded to: SVG Repo, www.svgrepo.com, Generator: SVG Repo Mixer Tools -->
<!DOCTYPE svg PUBLIC "-//W3C//DTD SVG 1.1//EN" "http://www.w3.org/Graphics/SVG/1.1/DTD/svg11.dtd">
<svg fill="#000000" version="1.1" id="Capa_1" xmlns="http://www.w3.org/2000/svg" xmlns:xlink="http://www.w3.org/1999/xlink" 
	 width="800px" height="800px" viewBox="0 0 492.316 492.316"
	 xml:space="preserve">
<g>
	<path d="M326.999,467.52h-9.459v-54.943h2.627c3.119,0,5.648-2.531,5.648-5.65s-2.529-5.65-5.648-5.65h-2.627v-21.157h-42.594
		c-2.77-0.487-4.101-1.991-4.968-5.347c-2.715-10.508-2.169-20.952,1.62-31.047c4.871-12.984,6.209-27.293,4.088-43.737
		c-0.138-1.069-0.279-2.14-0.423-3.21c-1.244-9.333-2.419-18.148-0.474-26.633c4.623-20.137,9.384-43.668,7.32-68.125
		c-0.517-6.117-0.871-12.4-1.216-18.475c-0.104-1.866-0.211-3.733-0.319-5.601c-0.07-1.184,0.008-1.801,0.069-2.082
		c13.365-6.029,15.894-18.816,17.568-27.285c0.61-3.095,1.024-6.184,1.426-9.171c0.606-4.531,1.181-8.812,2.369-12.753
		c3.013-9.968,3.644-25.313,1.937-37.074c-1.229-8.467-5.927-14.572-13.228-17.191c-3.562-1.276-28.597-8.119-26.56-17.482
		c1.996-9.168,6.51-22.165,6.724-31.361c0.192-8.432-2.729-22.703-24.465-23.533L246.158,0l-0.259,0.011
		c-21.73,0.83-24.651,15.102-24.459,23.532c0.209,9.189,5.386,22.183,7.385,31.359c2.038,9.366-23.664,16.209-27.228,17.487
		c-7.298,2.617-11.994,8.723-13.224,17.189c-1.708,11.762-1.075,27.106,1.935,37.074c1.191,3.943,1.764,8.229,2.372,12.762
		c0.399,2.984,0.813,6.069,1.424,9.163c1.673,8.452,4.196,21.206,17.569,27.288c0.061,0.282,0.14,0.902,0.069,2.082l-0.314,5.484
		c-0.344,6.111-0.701,12.432-1.221,18.587c-2.064,24.458,2.696,47.99,7.319,68.125c1.946,8.484,0.771,17.301-0.472,26.635
		c-0.143,1.07-0.285,2.14-0.423,3.207c-2.122,16.447-0.785,30.755,4.088,43.74c3.79,10.098,4.335,20.541,1.62,31.047
		c-0.868,3.354-2.198,4.857-4.969,5.346h-42.594v21.232c-2.759,0.373-4.894,2.715-4.894,5.575c0,2.859,2.135,5.2,4.894,5.574v55.021
		h-9.456c-6.849,0-12.399,5.551-12.399,12.396c0,6.848,5.551,12.401,12.399,12.401h161.679c6.844,0,12.396-5.555,12.396-12.401
		C339.396,473.07,333.843,467.52,326.999,467.52z M301.815,446.926H190.502v-27.488h111.313V446.926z"/>
</g>
</svg>