<?xml version="1.0" encoding="iso-8859-1"?>
<!-- Uploaded to: SVG Repo, www.svgrepo.com, Generator: SVG Repo Mixer Tools -->
<svg height="800px" width="800px" version="1.1" id="Capa_1" xmlns="http://www.w3.org/2000/svg" xmlns:xlink="http://www.w3.org/1999/xlink" 
	 viewBox="0 0 56.9 56.9" xml:space="preserve">
<g>
	<g>
		<circle style="fill:#010002;" cx="15.455" cy="28.5" r="3.4"/>
		<circle style="fill:#010002;" cx="37.555" cy="4.8" r="4.8"/>
		<path style="fill:#010002;" d="M44.855,10.6c-1.3-0.6-4-0.4-4.4-0.4l-2.4,4.8l0.3-4h0.1v-0.8h-1.5V11h0.1l0.3,4l-2.4-4.8
			c-0.4,0-3.2-0.2-4.4,0.4c-2,0.7-6.3,3.9-9,18.7c-0.1,0.4,0,0.9,0.1,1.3c-1.1,0.8-2.9,1.7-6,1.7s-5.5,0.9-7.2,2.7
			c-2.6,2.8-2.3,6.6-2.3,6.7c0.1,0.8,0.8,1.5,1.6,1.5h0.1c0.9-0.1,1.6-0.8,1.5-1.7c0,0-0.1-2.6,1.4-4.3c0.2-0.2,0.4-0.4,0.7-0.6v5
			c0,0.5,0.1,1,0.3,1.5V55c0,0.9,0.8,1.7,1.7,1.7c0.9,0,1.7-0.8,1.7-1.7v-9.3c0.1,0,0.3,0,0.4,0c0.2,0,0.3,0,0.4,0V55
			c0,0.9,0.8,1.7,1.7,1.7c0.9,0,1.7-0.8,1.7-1.7V43.1c0.2-0.5,0.3-1,0.3-1.5V35c2.5-0.7,4-1.9,4.9-2.8c0.9-0.3,1.6-1,1.8-1.9
			c1.6-8.7,3.6-12.4,4.8-13.9v19.1v18.6c0,1.5,1.1,2.8,2.7,2.8s2.8-1.2,2.8-2.8V34.6c0,0,0.1-0.9,1.1-1c1,0,1.1,1,1.1,1v19.3
			c0,1.5,1.3,2.8,2.8,2.8s2.7-1.2,2.7-2.8V35.3V19.4c0,0,1.2,4.3,1.3,7.9c0,3.3,5.2,3.3,5.1,0C50.455,12.9,44.855,10.6,44.855,10.6z
			"/>
	</g>
</g>
</svg>