<?xml version="1.0" encoding="iso-8859-1"?>
<!-- Uploaded to: SVG Repo, www.svgrepo.com, Generator: SVG Repo Mixer Tools -->
<svg fill="#000000" height="800px" width="800px" version="1.1" id="Layer_1" xmlns="http://www.w3.org/2000/svg" xmlns:xlink="http://www.w3.org/1999/xlink" 
	 viewBox="0 0 512 512" xml:space="preserve">
<g>
	<g>
		<path d="M340.421,26.649c-14.309-15.274-33.718-23.686-54.647-23.686h-59.546c-20.93,0-40.338,8.411-54.647,23.686
			c-14.31,15.273-21.441,35.186-20.079,56.072l2.647,40.582l6.181,94.763c2.141,32.837,20.633,61.91,49.468,77.769
			c14.469,7.957,30.333,11.934,46.204,11.934c15.868,0,31.74-3.979,46.204-11.933c28.834-15.86,47.327-44.933,49.468-77.77
			l7.062-108.285v-0.001l1.764-27.058C361.863,61.835,354.731,41.922,340.421,26.649z M171.855,81.395
			c-0.99-15.197,4.199-29.686,14.61-40.799c10.412-11.113,24.533-17.233,39.762-17.233h59.546c1.321,0,2.629,0.063,3.932,0.154
			l-15.776,42.071c-1.313,2.119-7.634,11.502-22.063,21.244c-14.09,9.513-38.767,21.163-78.034,24.871L171.855,81.395z
			 M331.317,216.738c-1.686,25.852-16.243,48.739-38.944,61.224c-22.775,12.526-49.972,12.527-72.747-0.001
			c-22.7-12.484-37.258-35.372-38.945-61.222l-5.523-84.681c57.446-5.269,88.778-26.267,104.215-41.341
			c4.128,4.734,10.025,9.094,17.645,13.03c8.232,4.253,21.934,8.723,40.798,13.318L331.317,216.738z M340.145,81.394l-0.978,14.994
			c-18.902-4.751-28.216-8.403-32.783-10.763c-11.121-5.747-13.632-10.5-13.699-11.959c0.008-0.02,0.013-0.041,0.02-0.061
			c0.006-0.015,0.013-0.029,0.018-0.044l16.797-44.793c5.927,2.874,11.346,6.845,16.015,11.828
			C335.947,51.709,341.136,66.2,340.145,81.394z"/>
	</g>
</g>
<g>
	<g>
		<path d="M511.837,497.02l-9.862-54.435c-5.527-30.507-20.03-58.2-41.943-80.086c-21.655-21.629-48.947-36.045-78.924-41.69
			c-0.001,0-0.003-0.001-0.004-0.001c-9.238-1.74-18.689-2.622-28.09-2.622h-29.699c-2.705,0-5.299,1.075-7.212,2.987L256,381.273
			l-60.102-60.103c-1.913-1.912-4.507-2.987-7.212-2.987h-29.7c-9.401,0-18.851,0.882-28.09,2.622c-0.001,0-0.003,0.001-0.004,0.001
			c-29.978,5.645-57.27,20.061-78.926,41.69c-21.912,21.886-36.415,49.579-41.942,80.086L0.163,497.02
			c-0.539,2.974,0.27,6.035,2.207,8.355c1.938,2.319,4.806,3.661,7.829,3.661h491.602c3.023,0,5.89-1.341,7.829-3.661
			C511.567,503.055,512.375,499.994,511.837,497.02z M263.212,402.909l64.327-64.326h25.476c1.321,0,2.642,0.02,3.963,0.061
			l-50.488,50.488L256,439.619l-14.749-14.749L263.212,402.909z M158.986,338.581h25.475v0.001l57.115,57.115l-14.749,14.749
			l-21.315-21.315l-50.488-50.488C156.345,338.602,157.665,338.581,158.986,338.581z M22.413,488.638l7.684-42.418
			c9.295-51.308,48.902-92.598,99.378-104.277l119.313,119.312c1.992,1.991,4.602,2.987,7.212,2.987c2.61,0,5.22-0.996,7.212-2.987
			l119.313-119.312c50.475,11.68,90.082,52.971,99.378,104.277l7.684,42.418H22.413z"/>
	</g>
</g>
</svg>