<?xml version="1.0" encoding="iso-8859-1"?>
<!-- Uploaded to: SVG Repo, www.svgrepo.com, Generator: SVG Repo Mixer Tools -->
<svg fill="#000000" height="800px" width="800px" version="1.1" id="Layer_1" xmlns="http://www.w3.org/2000/svg" xmlns:xlink="http://www.w3.org/1999/xlink" 
	 viewBox="0 0 512 512" xml:space="preserve">
<g>
	<g>
		<path d="M190.309,456.058l-46.598-66.27l0.604-5.318c-33.642-9.776-23.561-6.846-41.117-11.947l-2.325,20.463
			c-0.583,5.131,0.735,10.297,3.705,14.519l51.209,72.826c6.705,9.535,19.866,11.827,29.398,5.124
			C194.718,478.753,197.012,465.59,190.309,456.058z"/>
	</g>
</g>
<g>
	<g>
		<path d="M54.02,358.234l-6.917,29.688c-0.365,1.565-0.549,3.167-0.55,4.774l-0.061,98.188
			c-0.008,11.654,9.434,21.107,21.088,21.115c0.004,0,0.008,0,0.013,0c11.647-0.001,21.094-9.44,21.1-21.088l0.06-95.769
			l5.851-25.115L54.02,358.234z"/>
	</g>
</g>
<g>
	<g>
		<circle cx="364.243" cy="81.337" r="38.299"/>
	</g>
</g>
<g>
	<g>
		<path d="M142.16,96.43c-5.69,19.583,5.803,39.84,25.109,45.239l18.366-23.456l3.192-46.133
			C169.045,65.402,147.917,76.62,142.16,96.43z"/>
	</g>
</g>
<g>
	<g>
		<path d="M473.898,165.561l-65.83-28.573c-2.322-1.007-4.826-1.528-7.357-1.528c-21.602,0-43.266,0-64.851,0
			c-4.695-6.012-95.58-122.373-100.262-128.365c-6.264-8.02-17.909-9.464-25.94-3.188c-6.982,5.454-10.626,16.417-2.116,27.313
			c-0.442,2.124,0.116-4.622-6.363,89.032l-48.627,40.212l7.086-9.05c-0.643-0.289-0.422-0.264-3.354-1.203
			c-4.787-1.533-17.979-5.637-57.059-17.873L62.91,75.681c-5.813-9.069-17.877-11.71-26.945-5.894
			C26.896,75.6,24.257,87.664,30.07,96.732l40.143,62.624c2.472,3.857,6.221,6.719,10.593,8.088
			c15.168,4.749,9.585,3.001,27.243,8.53L34.526,322.978c-2.752,5.502-0.21,12.098,5.248,13.685
			c26.338,7.653,94.297,27.401,120.653,35.059c5.436,1.579,11.139-2.616,11.764-8.741l17.894-175.136l-12.671,2.678l55.076-45.545
			c4.118-3.406,6.659-8.352,7.028-13.685l3.758-54.325c74.897,95.889,69.477,89.294,71.824,91.229l0.009,321.622
			c0,12.249,9.929,22.176,22.176,22.176c12.247,0,22.176-9.927,22.176-22.176V312.563h9.579c0.003,3.487-2.588-9.725,38.43,181.898
			c2.57,12.009,14.39,19.605,26.327,17.043c11.976-2.563,19.606-14.35,17.043-26.326l-37.853-176.842v-51.452
			c0.727-0.499,1.435-1.038,2.101-1.653l63.997-59.145C488.874,187.037,486.136,170.873,473.898,165.561z M412.986,206.845v-27.43
			l20.195,8.765L412.986,206.845z"/>
	</g>
</g>
</svg>