<?xml version="1.0" encoding="iso-8859-1"?>
<!-- Uploaded to: SVG Repo, www.svgrepo.com, Generator: SVG Repo Mixer Tools -->
<svg fill="#000000" height="800px" width="800px" version="1.1" id="Layer_1" xmlns="http://www.w3.org/2000/svg" xmlns:xlink="http://www.w3.org/1999/xlink" 
	 viewBox="0 0 512 512" xml:space="preserve">
<g>
	<g>
		<g>
			<path d="M454.601,46.73H367.74L347.323,5.897c-0.219-0.437-0.468-0.852-0.739-1.248c-0.065-0.094-0.14-0.177-0.206-0.269
				c-0.214-0.292-0.433-0.579-0.675-0.846c-0.109-0.121-0.229-0.229-0.344-0.346c-0.217-0.219-0.433-0.435-0.667-0.634
				c-0.14-0.118-0.286-0.223-0.429-0.334c-0.227-0.175-0.459-0.346-0.7-0.503c-0.16-0.105-0.325-0.198-0.49-0.291
				c-0.242-0.138-0.485-0.269-0.735-0.389c-0.179-0.083-0.361-0.16-0.544-0.236c-0.252-0.102-0.507-0.196-0.767-0.279
				c-0.194-0.061-0.387-0.118-0.586-0.169c-0.262-0.068-0.527-0.123-0.796-0.171c-0.204-0.035-0.406-0.07-0.612-0.096
				c-0.096-0.011-0.188-0.035-0.284-0.044c-0.184-0.017-0.367-0.009-0.551-0.015C338.059,0.023,337.919,0,337.778,0H174.224
				c-0.14,0-0.273,0.023-0.411,0.029c-0.186,0.006-0.371-0.002-0.558,0.015c-0.096,0.009-0.188,0.033-0.282,0.044
				c-0.21,0.025-0.417,0.061-0.623,0.098c-0.262,0.046-0.525,0.1-0.783,0.166c-0.202,0.052-0.4,0.111-0.599,0.175
				c-0.254,0.081-0.505,0.171-0.748,0.271c-0.192,0.077-0.379,0.156-0.564,0.245c-0.242,0.114-0.477,0.242-0.711,0.376
				c-0.173,0.098-0.348,0.197-0.516,0.306c-0.229,0.148-0.448,0.313-0.667,0.477c-0.155,0.118-0.31,0.234-0.461,0.361
				c-0.217,0.186-0.421,0.387-0.623,0.592c-0.129,0.129-0.265,0.252-0.387,0.389c-0.214,0.24-0.409,0.496-0.602,0.756
				c-0.092,0.121-0.192,0.234-0.277,0.361c-0.269,0.392-0.514,0.804-0.732,1.235l-0.004,0.008l-20.41,40.825H57.399
				c-5.892,0-10.669,4.779-10.669,10.669v158.434v53.333v232.165c0,5.892,4.776,10.669,10.669,10.669h397.203
				c5.89,0,10.669-4.776,10.669-10.669V57.399C465.27,51.508,460.492,46.73,454.601,46.73z M349.733,58.431l-11.174,38.358
				c-0.035,0.111-0.065,0.223-0.096,0.334l-13.839,47.503l-52.677-28.79l63.994-84.988L349.733,58.431z M316.39,21.338
				L297.272,46.73h-82.539l-19.121-25.393H316.39z M176.061,30.848l63.991,84.988l-52.675,28.789l-13.887-47.676
				c-0.009-0.027-0.017-0.054-0.025-0.081l-11.195-38.436L176.061,30.848z M68.067,68.068h74.787l6.211,21.329H68.067V68.068z
				 M68.067,226.501h106.661v33.628l-53.332,8.885l-53.329-8.885V226.501z M245.332,490.662H68.067V281.761l42.66,7.108v45.403
				c0,5.89,4.779,10.669,10.669,10.669c5.892,0,10.669-4.779,10.669-10.669v-45.403l55.086-9.177
				c5.145-0.859,8.914-5.31,8.914-10.525v-53.333c0-5.89-4.776-10.669-10.669-10.669H68.067v-94.43h87.215l15.321,52.6
				c0.903,3.102,3.165,5.63,6.152,6.87c1.312,0.544,2.702,0.815,4.09,0.815c1.767,0,3.528-0.437,5.118-1.307l59.368-32.444V490.662z
				 M230.795,68.068h50.41l-25.205,33.476L230.795,68.068z M443.932,490.662h-21.325v-43.771c0-5.89-4.779-10.669-10.669-10.669
				c-5.893,0-10.669,4.779-10.669,10.669v43.771h-134.6V137.269l59.368,32.444c1.59,0.868,3.351,1.307,5.118,1.307
				c1.388,0,2.777-0.271,4.09-0.815c2.986-1.24,5.249-3.765,6.152-6.87l15.324-52.6h87.211V490.662z M443.933,89.397h-80.995
				l6.214-21.329h74.782V89.397z"/>
			<path d="M355.185,192.964c-4.076,0.042-7.77,2.405-9.521,6.087l-13.268,27.91l-32.035,4.871c-4.03,0.615-7.358,3.469-8.577,7.359
				c-1.217,3.89-0.112,8.135,2.849,10.938l22.444,21.239l-5.268,31.973c-0.663,4.024,1.025,8.071,4.349,10.431
				c3.326,2.361,7.704,2.621,11.281,0.671l27.139-14.782l28.781,14.89c1.546,0.798,3.225,1.192,4.901,1.192
				c2.25,0,4.488-0.711,6.364-2.105c3.273-2.431,4.874-6.513,4.126-10.523l-5.673-30.374l23.054-22.769
				c2.901-2.866,3.913-7.131,2.613-10.996c-1.3-3.863-4.69-6.647-8.733-7.175l-30.644-3.994l-14.532-28.96
				c-1.81-3.609-5.503-5.885-9.536-5.885C355.262,192.962,355.223,192.962,355.185,192.964z M362.838,242.443
				c1.588,3.165,4.644,5.337,8.158,5.793l14.603,1.904l-11.547,11.4c-2.519,2.49-3.64,6.068-2.99,9.55l2.705,14.478l-14.416-7.458
				c-1.537-0.796-3.22-1.192-4.901-1.192c-1.758,0-3.515,0.433-5.103,1.301l-12.932,7.044l2.636-16.012
				c0.575-3.494-0.621-7.047-3.192-9.481l-10.695-10.123l16.043-2.44c3.5-0.533,6.51-2.77,8.03-5.968l6.322-13.301L362.838,242.443z
				"/>
			<path d="M121.392,354.244c-5.89,0-10.669,4.777-10.669,10.669v0.256c0,5.892,4.779,10.669,10.669,10.669
				c5.892,0,10.669-4.776,10.669-10.669v-0.256C132.061,359.022,127.286,354.244,121.392,354.244z"/>
			<path d="M401.265,415.994v0.256c0,5.891,4.776,10.669,10.669,10.669c5.89,0,10.669-4.777,10.669-10.669v-0.256
				c0-5.892-4.778-10.669-10.669-10.669C406.041,405.325,401.265,410.101,401.265,415.994z"/>
		</g>
	</g>
</g>
</svg>