<?xml version="1.0" encoding="utf-8"?><!-- Uploaded to: SVG Repo, www.svgrepo.com, Generator: SVG Repo Mixer Tools -->
<svg width="800px" height="800px" viewBox="0 0 24 24" fill="none" xmlns="http://www.w3.org/2000/svg">
<path d="M5.51971 11.6679C5.38628 12.0125 4.9682 12.1706 4.61602 12.0587C4.26384 11.9468 4.07911 11.593 4.17097 11.2351L4.30609 10.7086C4.41418 10.2874 4.80736 10.021 5.22175 10.1526C5.63614 10.2843 5.87297 10.7555 5.71598 11.161L5.51971 11.6679Z" fill="#0F0F0F"/>
<path d="M8.01677 12.9936C7.80606 13.2969 7.37725 13.3614 7.06167 13.1697C6.74609 12.9779 6.63437 12.5827 6.80738 12.2565L7.06187 11.7766C7.26583 11.392 7.72803 11.2343 8.10009 11.4604C8.47215 11.6864 8.57514 12.1901 8.32672 12.5476L8.01677 12.9936Z" fill="#0F0F0F"/>
<path d="M9.17133 14.8286C8.90951 14.5668 8.88327 14.1441 9.12924 13.8673L9.48892 13.4626C9.77806 13.1372 10.2777 13.1066 10.5855 13.4144C10.8933 13.7222 10.8627 14.2218 10.5373 14.511L10.1326 14.8707C9.85584 15.1166 9.43315 15.0904 9.17133 14.8286Z" fill="#0F0F0F"/>
<path d="M11.7434 17.1925C11.4172 17.3655 11.022 17.2538 10.8302 16.9382C10.6385 16.6227 10.7031 16.1939 11.0063 15.9831L11.4523 15.6732C11.8098 15.4248 12.3135 15.5278 12.5395 15.8998C12.7656 16.2719 12.6079 16.7341 12.2233 16.938L11.7434 17.1925Z" fill="#0F0F0F"/>
<path d="M12.7648 19.8289C12.4069 19.9208 12.0531 19.7361 11.9412 19.3839C11.8293 19.0317 11.9874 18.6136 12.332 18.4802L12.839 18.2839C13.2444 18.1269 13.7156 18.3638 13.8473 18.7782C13.979 19.1926 13.7125 19.5857 13.2913 19.6938L12.7648 19.8289Z" fill="#0F0F0F"/>
<path d="M19.829 12.7649C19.9209 12.407 19.7362 12.0532 19.384 11.9413C19.0318 11.8294 18.6137 11.9875 18.4803 12.3321L18.284 12.839C18.127 13.2445 18.3639 13.7157 18.7782 13.8474C19.1926 13.979 19.5858 13.7126 19.6939 13.2914L19.829 12.7649Z" fill="#0F0F0F"/>
<path d="M17.1926 11.7435C17.3656 11.4173 17.2539 11.0221 16.9383 10.8303C16.6228 10.6386 16.1939 10.7031 15.9832 11.0064L15.6733 11.4524C15.4249 11.8099 15.5279 12.3136 15.8999 12.5396C16.272 12.7657 16.7342 12.608 16.9381 12.2234L17.1926 11.7435Z" fill="#0F0F0F"/>
<path d="M14.8708 10.1327C15.1167 9.85592 15.0905 9.43324 14.8287 9.17142C14.5668 8.9096 14.1442 8.88336 13.8674 9.12932L13.4627 9.489C13.1373 9.77815 13.1067 10.2778 13.4145 10.5856C13.7223 10.8934 14.2219 10.8628 14.5111 10.5374L14.8708 10.1327Z" fill="#0F0F0F"/>
<path d="M12.9937 8.01685C13.2969 7.80615 13.3615 7.37733 13.1698 7.06175C12.978 6.74618 12.5828 6.63446 12.2566 6.80746L11.7767 7.06195C11.3921 7.26592 11.2344 7.72812 11.4605 8.10017C11.6865 8.47223 12.1902 8.57523 12.5477 8.32681L12.9937 8.01685Z" fill="#0F0F0F"/>
<path d="M11.668 5.51979C12.0126 5.38637 12.1707 4.96829 12.0588 4.61611C11.9469 4.26393 11.5931 4.0792 11.2352 4.17106L10.7087 4.30618C10.2875 4.41426 10.021 4.80745 10.1527 5.22184C10.2844 5.63623 10.7556 5.87306 11.161 5.71606L11.668 5.51979Z" fill="#0F0F0F"/>
<path fill-rule="evenodd" clip-rule="evenodd" d="M22.9999 11.9998C22.9999 18.0749 18.075 22.9998 11.9999 22.9998C5.92478 22.9998 0.999908 18.0749 0.999908 11.9998C0.999908 5.92462 5.92478 0.999756 11.9999 0.999756C18.075 0.999756 22.9999 5.92462 22.9999 11.9998ZM3.00674 11.9998C3.00674 16.9665 7.03312 20.9929 11.9999 20.9929C16.9667 20.9929 20.9931 16.9665 20.9931 11.9998C20.9931 7.03297 16.9667 3.00659 11.9999 3.00659C7.03312 3.00659 3.00674 7.03297 3.00674 11.9998Z" fill="#0F0F0F"/>
</svg>