<?xml version="1.0" standalone="no"?>
<!DOCTYPE svg PUBLIC "-//W3C//DTD SVG 20010904//EN"
 "http://www.w3.org/TR/2001/REC-SVG-20010904/DTD/svg10.dtd">
<svg version="1.0" xmlns="http://www.w3.org/2000/svg"
 width="512.000000pt" height="512.000000pt" viewBox="0 0 512.000000 512.000000"
 preserveAspectRatio="xMidYMid meet">

<g transform="translate(0.000000,512.000000) scale(0.100000,-0.100000)"
fill="#000000" stroke="none">
<path d="M5 5103 c4 -10 124 -342 267 -738 143 -396 263 -723 267 -727 3 -4
159 -3 345 3 l339 10 89 -88 c48 -48 88 -92 88 -97 0 -4 -18 -57 -39 -116
-203 -551 -198 -1054 16 -1623 l45 -120 -103 -102 c-57 -56 -351 -344 -654
-640 -302 -296 -574 -562 -604 -591 l-55 -53 99 -103 c55 -57 104 -103 110
-103 7 0 309 292 673 648 363 357 664 649 667 650 4 1 39 -55 79 -124 99 -173
227 -365 361 -544 147 -196 214 -275 403 -479 l157 -169 135 140 c298 307 587
692 799 1062 l70 124 503 -494 c277 -271 578 -567 670 -658 l168 -166 105 105
c58 58 104 107 103 110 -2 3 -319 316 -705 694 -387 379 -703 694 -703 700 0
7 16 51 35 98 127 316 193 706 167 989 -22 237 -71 453 -150 661 l-40 103 93
93 92 94 339 -11 c186 -5 340 -8 342 -6 10 10 533 1467 528 1472 -2 3 -325
-125 -715 -283 l-711 -288 0 -336 0 -336 -51 -49 c-42 -41 -53 -47 -60 -35 -5
8 -41 71 -80 140 -207 365 -499 754 -799 1063 l-135 140 -157 -169 c-187 -201
-254 -280 -403 -479 -137 -183 -278 -396 -375 -570 -40 -71 -75 -132 -77 -134
-2 -3 -26 17 -54 45 l-51 49 3 338 4 339 -680 272 c-374 149 -700 280 -724
289 -42 17 -43 17 -36 0z m2669 -546 c57 -68 156 -192 220 -277 l116 -155
-225 -225 -225 -225 -225 225 -224 225 76 105 c132 182 363 461 375 453 4 -2
55 -59 112 -126z m-1834 -96 l295 -119 3 -195 2 -194 -91 -6 c-51 -4 -140 -7
-198 -7 l-106 0 -114 313 c-63 171 -116 318 -119 326 -7 18 -19 22 328 -118z
m3734 32 c-19 -54 -72 -199 -117 -323 l-83 -225 -74 -3 c-41 -2 -130 0 -197 3
l-123 7 0 192 0 191 258 104 c141 58 280 115 307 127 28 12 53 23 57 23 4 1
-8 -43 -28 -96z m-1705 -939 l308 308 45 -79 c52 -89 128 -239 128 -250 0 -5
-20 -16 -43 -26 -64 -26 -186 -110 -261 -178 -84 -78 -175 -198 -222 -296 -21
-43 -39 -79 -40 -81 -1 -2 -19 5 -41 16 -96 49 -242 53 -350 9 l-60 -24 -40
81 c-98 197 -260 359 -461 461 l-73 37 57 107 c31 58 72 132 92 165 l35 58
308 -308 309 -309 309 309z m-1125 -352 c153 -89 305 -294 341 -459 l7 -33
-287 0 -288 0 7 63 c10 85 50 264 87 381 34 111 28 109 133 48z m1758 -34 c45
-141 98 -379 98 -445 0 -10 -64 -13 -285 -13 l-285 0 0 23 c0 36 62 177 107
243 45 66 109 135 163 176 48 37 151 98 165 98 6 0 23 -37 37 -82z m-871 -480
c41 -23 79 -84 79 -128 0 -49 -39 -108 -86 -131 -109 -52 -225 28 -211 147 12
109 123 166 218 112z m-546 -310 c-11 -50 -49 -142 -86 -206 -45 -76 -179
-210 -255 -254 -105 -61 -99 -63 -133 48 -37 117 -77 296 -87 382 l-7 62 288
0 287 0 -7 -32z m1510 -20 c-13 -101 -46 -249 -81 -366 -20 -64 -37 -118 -39
-120 -17 -17 -175 90 -251 169 -96 100 -170 232 -189 332 l-7 37 287 0 287 0
-7 -52z m-1226 -204 c112 -56 267 -57 374 -2 22 11 40 18 41 16 1 -2 19 -38
40 -81 47 -97 136 -216 218 -293 70 -64 220 -166 273 -185 19 -7 35 -17 35
-21 0 -12 -63 -136 -123 -242 l-50 -88 -308 308 -309 309 -308 -308 c-237
-236 -311 -305 -319 -295 -14 18 -103 178 -142 255 l-31 62 73 37 c199 100
362 263 460 461 23 46 42 83 43 83 0 0 15 -7 33 -16z m417 -935 l222 -222 -66
-91 c-86 -120 -196 -258 -299 -379 l-84 -97 -85 97 c-99 115 -217 263 -303
383 l-60 85 222 223 c122 122 224 222 227 222 3 0 105 -100 226 -221z"/>
</g>
</svg>
